<?xml version="1.0" encoding="UTF-8"?><svg id="Layer_1" xmlns="http://www.w3.org/2000/svg" viewBox="0 0 73.73 16.33"><defs><style>.cls-1{fill:#fff;}.cls-1,.cls-2{stroke-width:0px;}.cls-3{letter-spacing:0em;}.cls-4{font-family:Outfit-Black, Outfit;font-size:10.66px;font-weight:800;}.cls-4,.cls-2{fill:#14a800;}.cls-5{letter-spacing:-.01em;}.cls-6{letter-spacing:-.02em;}.cls-7{letter-spacing:0em;}</style></defs><text class="cls-4" transform="translate(0 11.26) scale(1.05 1)"><tspan class="cls-6" x="0" y="0">P</tspan><tspan class="cls-7" x="6.78" y="0">ayGo</tspan><tspan class="cls-5" x="33.91" y="0">F</tspan><tspan class="cls-3" x="40.33" y="0">ax</tspan></text><circle class="cls-2" cx="65.57" cy="8.16" r="8.16"/><path class="cls-1" d="M59.2,9.72c.01.19.14.36.32.44l2.93,1.16.76,2.51c.06.19.24.33.44.33h0c.13,0,.26-.06.35-.16h0s1.34-1.52,1.34-1.52l2.36.94c.14.06.31.04.44-.03.13-.08.22-.21.25-.36l1.52-8.99c.05-.28-.14-.54-.42-.59-.12-.02-.24,0-.35.06l-9.7,5.74c-.17.1-.26.29-.25.48ZM64.28,13.13l.27-.97.43.17-.71.8ZM68.04,12.95s-.03.08-.07.11c-.04.02-.09.03-.13,0l-3.12-1.24,4.71-7.04-1.38,8.17ZM69.5,3.81s.06.07.06.12l-5.27,7.88h0s-.02.03-.03.05l-.51,1.85c-.01.05-.07.08-.12.07-.03,0-.06-.03-.07-.07l-.76-2.49,6.55-7.43s.04-.01.06-.01c.03,0,.06.01.09.03ZM59.63,9.55l8.73-5.17-5.81,6.59-2.9-1.15c-.05-.02-.09-.07-.1-.13,0-.06.02-.12.08-.14Z"/></svg>