<?xml version="1.0" encoding="utf-8"?>
<!-- Generator: Adobe Illustrator 28.2.0, SVG Export Plug-In . SVG Version: 6.00 Build 0)  -->
<svg version="1.1" id="Layer_1" xmlns="http://www.w3.org/2000/svg" xmlns:xlink="http://www.w3.org/1999/xlink" x="0px" y="0px"
	 viewBox="0 0 73.7 16.3" style="enable-background:new 0 0 73.7 16.3;" xml:space="preserve">
<style type="text/css">
	.st0{enable-background:new    ;}
	.st1{fill:#14A800;}
	.st2{fill:#FFFFFF;}
</style>
<g class="st0">
	<path class="st1" d="M0.7,11.3V3.7h2v7.6H0.7z M2.3,8.6V7.1h1.6c0.2,0,0.4,0,0.5-0.1c0.2-0.1,0.3-0.2,0.4-0.3
		c0.1-0.1,0.1-0.3,0.1-0.6s0-0.4-0.1-0.6S4.6,5.3,4.4,5.2C4.2,5.2,4.1,5.1,3.9,5.1H2.3V3.7h1.9c0.5,0,1,0.1,1.4,0.3
		c0.4,0.2,0.7,0.5,1,0.8s0.4,0.8,0.4,1.3c0,0.5-0.1,0.9-0.4,1.3C6.3,7.8,6,8.1,5.6,8.3C5.2,8.5,4.7,8.6,4.2,8.6H2.3z"/>
</g>
<g class="st0">
	<path class="st1" d="M10,11.4c-0.5,0-1-0.1-1.4-0.4s-0.7-0.6-0.9-1C7.5,9.6,7.4,9.2,7.4,8.7c0-0.5,0.1-1,0.3-1.4
		c0.2-0.4,0.5-0.7,0.9-1S9.5,5.9,10,5.9c0.3,0,0.7,0.1,0.9,0.2s0.5,0.3,0.7,0.5c0.2,0.2,0.3,0.5,0.3,0.7V10c0,0.3-0.1,0.5-0.3,0.7
		c-0.2,0.2-0.4,0.4-0.7,0.5C10.6,11.3,10.3,11.4,10,11.4z M10.4,9.7c0.3,0,0.6-0.1,0.8-0.3c0.2-0.2,0.3-0.5,0.3-0.8
		c0-0.2,0-0.4-0.1-0.5c-0.1-0.2-0.2-0.3-0.4-0.4s-0.3-0.1-0.6-0.1c-0.2,0-0.4,0-0.6,0.1C9.7,7.8,9.6,7.9,9.5,8.1
		C9.4,8.3,9.3,8.4,9.3,8.6c0,0.2,0,0.4,0.1,0.5s0.2,0.3,0.4,0.4C10,9.7,10.2,9.7,10.4,9.7z M11.4,11.3V9.9l0.3-1.3l-0.3-1.3V6h1.9
		v5.2H11.4z"/>
	<path class="st1" d="M16.1,11.3L13.9,6H16l1.3,4.3h-0.8L17.8,6h2.1l-2.2,5.2H16.1z M14.8,13.5l1.6-3.4l1.3,1.2l-0.9,2.2H14.8z"/>
	<path class="st1" d="M24.5,11.4c-0.6,0-1.2-0.1-1.7-0.3c-0.5-0.2-1-0.5-1.3-0.8S20.8,9.5,20.6,9c-0.2-0.5-0.3-1-0.3-1.5
		c0-0.6,0.1-1.1,0.3-1.6s0.5-0.9,0.9-1.2c0.4-0.4,0.9-0.6,1.4-0.8c0.5-0.2,1.1-0.3,1.7-0.3c0.7,0,1.4,0.1,1.9,0.4s1,0.6,1.4,1
		l-1.3,1.3c-0.3-0.3-0.6-0.5-0.9-0.7c-0.3-0.2-0.7-0.2-1.1-0.2c-0.4,0-0.8,0.1-1.2,0.3C23,5.7,22.8,6,22.6,6.3
		c-0.2,0.3-0.3,0.7-0.3,1.2c0,0.4,0.1,0.8,0.3,1.2C22.7,9,23,9.2,23.3,9.4c0.3,0.2,0.7,0.3,1.1,0.3c0.4,0,0.8-0.1,1.1-0.2
		s0.5-0.4,0.7-0.7c0.2-0.3,0.2-0.7,0.2-1.1l1.4,0.8l-3.6-0.1V6.9h4.3v0.3c0,0.9-0.2,1.7-0.5,2.3c-0.3,0.6-0.8,1.1-1.4,1.4
		C26,11.2,25.3,11.4,24.5,11.4z"/>
	<path class="st1" d="M32,11.4c-0.6,0-1.1-0.1-1.6-0.4s-0.8-0.6-1.1-1S29,9.2,29,8.6c0-0.5,0.1-1,0.4-1.4c0.3-0.4,0.6-0.7,1.1-1
		c0.5-0.2,1-0.4,1.6-0.4s1.1,0.1,1.6,0.4c0.5,0.2,0.8,0.6,1.1,1c0.3,0.4,0.4,0.9,0.4,1.4c0,0.5-0.1,1-0.4,1.4
		c-0.3,0.4-0.6,0.7-1.1,1C33.1,11.3,32.6,11.4,32,11.4z M32,9.7c0.2,0,0.4,0,0.6-0.1s0.3-0.2,0.4-0.4c0.1-0.2,0.1-0.4,0.1-0.6
		c0-0.2,0-0.4-0.1-0.6c-0.1-0.2-0.2-0.3-0.4-0.4S32.3,7.6,32,7.6c-0.2,0-0.4,0-0.6,0.1c-0.2,0.1-0.3,0.2-0.4,0.4
		C31,8.3,31,8.4,31,8.7c0,0.2,0,0.4,0.1,0.6c0.1,0.2,0.2,0.3,0.4,0.4C31.6,9.7,31.8,9.7,32,9.7z"/>
</g>
<g class="st0">
	<path class="st1" d="M36.3,11.3V3.7h2v7.6H36.3z M37.9,5.3V3.7H42v1.6H37.9z M37.9,8.4V6.8h3.9v1.6H37.9z"/>
</g>
<g class="st0">
	<path class="st1" d="M45.2,11.4c-0.5,0-1-0.1-1.4-0.4s-0.7-0.6-0.9-1c-0.2-0.4-0.3-0.9-0.3-1.4c0-0.5,0.1-1,0.3-1.4
		c0.2-0.4,0.5-0.7,0.9-1s0.8-0.3,1.4-0.3c0.3,0,0.7,0.1,0.9,0.2c0.3,0.1,0.5,0.3,0.7,0.5c0.2,0.2,0.3,0.5,0.3,0.7V10
		c0,0.3-0.1,0.5-0.3,0.7s-0.4,0.4-0.7,0.5C45.9,11.3,45.5,11.4,45.2,11.4z M45.6,9.7c0.3,0,0.6-0.1,0.8-0.3s0.3-0.5,0.3-0.8
		c0-0.2,0-0.4-0.1-0.5c-0.1-0.2-0.2-0.3-0.4-0.4c-0.2-0.1-0.3-0.1-0.6-0.1c-0.2,0-0.4,0-0.6,0.1s-0.3,0.2-0.4,0.4
		c-0.1,0.2-0.1,0.3-0.1,0.5c0,0.2,0,0.4,0.1,0.5c0.1,0.2,0.2,0.3,0.4,0.4C45.2,9.7,45.4,9.7,45.6,9.7z M46.6,11.3V9.9l0.3-1.3
		l-0.3-1.3V6h1.9v5.2H46.6z"/>
	<path class="st1" d="M49.1,11.3l2.2-3.1l1.1,1.1l-1.3,1.9H49.1z M53,11.3l-1.2-1.9l-0.4-0.3l-2.2-3h2.2l1.2,1.9L53,8.2l2.2,3.1H53z
		 M53,9.1l-1.1-1.1L53,6h2.1L53,9.1z"/>
</g>
<circle class="st1" cx="65.6" cy="8.2" r="8.2"/>
<path class="st2" d="M59.2,9.7c0,0.2,0.1,0.4,0.3,0.4l2.9,1.2l0.8,2.5c0.1,0.2,0.2,0.3,0.4,0.3l0,0c0.1,0,0.3-0.1,0.3-0.2l0,0
	l1.3-1.5l2.4,0.9c0.1,0.1,0.3,0,0.4,0c0.1-0.1,0.2-0.2,0.2-0.4l1.5-9c0.1-0.3-0.1-0.5-0.4-0.6c-0.1,0-0.2,0-0.3,0.1l-9.7,5.7
	C59.3,9.4,59.2,9.5,59.2,9.7L59.2,9.7z M64.3,13.1l0.3-1l0.4,0.2L64.3,13.1L64.3,13.1z M68,12.9c0,0,0,0.1-0.1,0.1c0,0-0.1,0-0.1,0
	l-3.1-1.2l4.7-7L68,12.9L68,12.9z M69.5,3.8c0,0,0.1,0.1,0.1,0.1l-5.3,7.9l0,0c0,0,0,0,0,0.1l-0.5,1.9c0,0.1-0.1,0.1-0.1,0.1
	c0,0-0.1,0-0.1-0.1l-0.8-2.5l6.5-7.4C69.4,3.8,69.4,3.8,69.5,3.8C69.4,3.8,69.5,3.8,69.5,3.8z M59.6,9.6l8.7-5.2L62.5,11l-2.9-1.1
	c0,0-0.1-0.1-0.1-0.1C59.5,9.6,59.6,9.6,59.6,9.6z"/>
</svg>
