<?xml version="1.0" encoding="utf-8"?>
<!-- Generator: Adobe Illustrator 28.2.0, SVG Export Plug-In . SVG Version: 6.00 Build 0)  -->
<svg version="1.1" xmlns="http://www.w3.org/2000/svg" xmlns:xlink="http://www.w3.org/1999/xlink" x="0px" y="0px"
	 viewBox="0 0 110.4 93.7" style="enable-background:new 0 0 110.4 93.7;" xml:space="preserve">
<style type="text/css">
	.st0{fill:#FFFFFF;}
</style>
<g id="Layer_1" xmlns:cc="http://creativecommons.org/ns#" xmlns:dc="http://purl.org/dc/elements/1.1/" xmlns:svg="http://www.w3.org/2000/svg" xmlns:rdf="http://www.w3.org/1999/02/22-rdf-syntax-ns#" xmlns:inkscape="http://www.inkscape.org/namespaces/inkscape" xmlns:sodipodi="http://sodipodi.sourceforge.net/DTD/sodipodi-0.dtd">
	<path class="st0" d="M97.1,38.1l-6.6-5.5v-16c0-0.7-0.6-1.4-1.4-1.4H69.7L56.1,3.9c-0.6-0.4-1.3-0.4-1.8,0L40.7,15.2H21.3
		c-0.7,0-1.4,0.6-1.4,1.4v16l-6.6,5.5c-0.3,0.3-0.6,0.7-0.6,1.1V87c0,0.7,0.6,1.4,1.4,1.4h82c0.7,0,1.4-0.6,1.4-1.4V39.2
		C97.7,38.8,97.5,38.4,97.1,38.1z M55.2,6.8l10.2,8.5H45.1L55.2,6.8z M20,36.2v2.3l2.8,1.1V18h65v21.6l2.8-1.1v-2.3l3.1,2.7
		L55.2,55.3L16.8,38.8L20,36.2z M94.8,85.6H15.7V41.3l39,16.8c0.1,0.1,0.4,0.1,0.6,0.1c0.1,0,0.4,0,0.6-0.1l39-16.8V85.6z
		 M79.1,29.5H31.4v-2.8h47.8C79.1,26.6,79.1,29.5,79.1,29.5z M79.1,40.8H31.4v-2.8h47.8C79.1,37.9,79.1,40.8,79.1,40.8z"/>
</g>
<g id="Layer_2">
</g>
</svg>
